# Blender 3.6.5
# www.blender.org
mtllib doorwall.mtl
o Cube.009
v -6.382391 0.245576 5.926079
v -6.382391 0.245576 6.053694
v 6.479270 0.245577 5.926078
v 6.479270 0.245577 6.053694
v -6.382392 12.794329 5.926079
v -6.382392 12.794329 6.053694
v 6.479269 12.794331 5.926078
v 6.479269 12.794331 6.053694
v -1.705082 5.620849 5.926079
v -2.015670 5.361250 5.926079
v -2.015670 5.620849 5.926079
v 2.029383 5.620850 5.926078
v 1.705082 5.620850 5.926078
v 2.029383 5.361250 5.926078
v 2.029383 0.250848 5.926078
v 1.705082 0.250848 5.926078
v -1.705082 0.250848 5.926079
v -2.015670 0.250848 5.926079
v -1.705082 5.620849 6.053694
v -2.015670 5.361250 6.053694
v -2.015670 5.620849 6.053694
v -1.705082 0.250848 6.053694
v -2.015670 0.250848 6.053694
v 2.029383 0.250848 6.053694
v 1.705082 0.250848 6.053694
v 2.029383 5.620850 6.053694
v 1.705082 5.620850 6.053694
v 2.029383 5.361250 6.053694
vn -0.0000 -0.0000 -1.0000
vn 1.0000 -0.0000 -0.0000
vn -0.0000 1.0000 -0.0000
vn -0.0000 -0.0000 1.0000
vn -0.0000 -1.0000 -0.0000
vn -1.0000 -0.0000 -0.0000
vt 0.625105 0.663505
vt 0.625000 0.750000
vt 0.625000 0.500000
vt 0.625105 0.584879
vt 0.625105 0.590916
vt 0.625105 0.657201
vt 0.875000 0.500000
vt 0.875000 0.750000
vt 0.726916 0.663505
vt 0.732088 0.663505
vt 0.732088 0.657201
vt 0.732088 0.590916
vt 0.732088 0.584879
vt 0.726916 0.584879
vt 0.375000 0.750000
vt 0.625000 1.000000
vt 0.375000 1.000000
vt 0.375000 0.000000
vt 0.625000 0.000000
vt 0.625000 0.250000
vt 0.375000 0.250000
vt 0.125000 0.750000
vt 0.125000 0.500000
vt 0.375000 0.500000
vt 0.374895 0.584879
vt 0.273084 0.584879
vt 0.267912 0.584879
vt 0.267912 0.590916
vt 0.267912 0.657201
vt 0.267912 0.663505
vt 0.273084 0.663505
vt 0.374895 0.663505
vt 0.374895 0.657201
vt 0.374895 0.590916
vt 0.375000 0.107734
vt 0.375000 0.170254
vt 0.375000 0.579746
vt 0.375000 0.642266
vt 0.625000 0.107734
vt 0.625000 0.170254
vt 0.625000 0.579746
vt 0.625000 0.642266
s 0
usemtl Material.008
f 15/1/1 3/2/1 1/3/1 18/4/1 17/5/1 16/6/1
f 18/4/1 1/3/1 5/7/1 7/8/1 3/2/1 15/1/1 14/9/1 12/10/1 13/11/1 9/12/1 11/13/1 10/14/1
f 4/15/2 3/2/2 7/16/2 8/17/2
f 8/18/3 7/19/3 5/20/3 6/21/3
f 4/15/4 8/22/4 6/23/4 2/24/4 23/25/4 20/26/4 21/27/4 19/28/4 27/29/4 26/30/4 28/31/4 24/32/4
f 2/24/4 4/15/4 24/32/4 25/33/4 22/34/4 23/25/4
f 2/24/5 1/3/5 3/2/5 4/15/5
f 6/21/6 5/20/6 1/3/6 2/24/6
f 16/24/3 17/22/3 22/22/3 25/24/3
f 23/35/2 18/36/2 10/36/2 20/35/2
f 17/23/3 18/23/3 23/23/3 22/23/3
f 14/37/6 15/37/6 24/38/6 28/38/6
f 15/15/3 16/15/3 25/15/3 24/15/3
f 19/7/5 9/7/5 13/2/5 27/2/5
f 21/8/5 11/8/5 9/8/5 19/8/5
f 27/3/5 13/3/5 12/3/5 26/3/5
f 20/39/2 10/40/2 11/40/2 21/39/2
f 12/41/6 14/41/6 28/42/6 26/42/6
