# Blender 3.6.5
# www.blender.org
mtllib door.mtl
o Cube.006
v -1.693577 5.361250 6.131127
v -1.368176 0.738488 6.061804
v -1.693577 5.361250 5.620834
v -1.693577 0.250849 5.620834
v 1.716587 5.361250 6.131127
v 1.391186 0.738488 6.061805
v 1.716587 5.361250 5.620835
v 1.716587 0.250849 5.620835
v 1.716587 0.250849 6.131127
v 1.716587 0.250849 5.620835
v -1.693577 5.361250 6.131127
v -1.693577 0.250849 6.131127
v 1.716587 5.361250 5.620835
v -1.693577 5.361250 5.620834
v -1.693577 0.250849 5.620834
v 1.716587 5.361250 6.131127
v 2.027175 0.250849 6.131127
v 2.027175 0.250849 5.620835
v 2.027175 5.361250 5.620835
v 2.027175 5.361250 6.131127
v -2.017878 5.361250 6.131127
v -2.017878 0.250849 6.131127
v -2.017878 5.361250 5.620834
v -2.017878 0.250849 5.620834
v -1.693577 5.620849 5.620834
v 1.716587 5.620849 5.620835
v -1.693577 5.620849 6.131127
v 1.716587 5.620849 6.131127
v 2.027175 5.620849 5.620835
v 2.027175 5.620849 6.131127
v -2.017878 5.620849 6.131127
v -2.017878 5.620849 5.620834
v -1.693578 5.361250 6.308944
v -1.693578 0.250849 6.308944
v 1.716586 5.361250 6.308945
v 1.716586 0.250849 6.308945
v 1.716586 5.620849 6.308945
v 2.027175 5.361250 6.308945
v 2.027175 5.620849 6.308945
v 2.027175 0.250849 6.308945
v -2.017878 5.361250 6.308944
v -2.017878 0.250849 6.308944
v -1.693578 5.620849 6.308944
v -2.017878 5.620849 6.308944
v 0.011505 0.738488 6.061804
v -1.368176 2.318410 6.061804
v 1.391186 2.318410 6.061805
v 0.011505 5.361250 6.131127
v 0.011505 2.318410 6.061804
v 0.011505 4.931283 6.024463
v -1.061037 4.931283 6.024462
v -1.061037 3.236016 6.024462
v 1.084046 4.931283 6.024463
v 1.084046 3.236016 6.024463
v 0.011505 3.236016 6.024463
v 0.011505 5.361250 6.131127
v -1.693577 5.361250 6.131127
v -1.693577 2.806049 6.131127
v 1.716587 5.361250 6.131127
v 1.716587 2.806049 6.131127
v 0.011505 2.806049 6.131127
v 0.011505 0.250849 6.131127
v 1.716587 0.250849 6.131127
v -1.693577 2.806049 6.131127
v -1.693577 0.250849 6.131127
v 1.716587 2.806049 6.131127
v 0.011505 2.806049 6.131127
vn -0.0000 1.0000 -0.0000
vn -0.0000 -0.0000 -1.0000
vn -0.0000 -1.0000 -0.0000
vn -1.0000 -0.0000 -0.0000
vn 1.0000 -0.0000 -0.0000
vn -0.0000 -0.0000 1.0000
vn -0.0000 -0.2408 0.9706
vn 0.1663 -0.0000 0.9861
vn -0.1663 -0.0000 0.9861
vn -0.0000 0.2408 0.9706
vn -0.0000 0.1407 0.9900
vn 0.2084 -0.0000 0.9781
vn -0.2084 -0.0000 0.9781
vn -0.0000 -0.1407 0.9900
vt 0.000000 0.000000
vt 0.375000 0.750000
vt 0.625000 0.750000
vt 0.625000 1.000000
vt 0.375000 1.000000
vt 0.125000 0.500000
vt 0.250000 0.500000
vt 0.375000 0.500000
vt 0.125000 0.750000
vt 0.625000 0.375000
vt 0.625000 0.500000
vt 0.625000 0.250000
vt 0.375000 0.000000
vt 0.625000 0.000000
vt 0.375000 0.250000
vt 0.875000 0.500000
vt 0.875000 0.750000
vt 0.398855 0.375000
vt 0.476145 0.375000
vt 0.476145 0.476145
vt 0.398855 0.476145
vt 0.398855 0.273855
vt 0.476145 0.273855
vt 0.500000 0.375000
vt 0.500000 0.250000
vt 0.521034 0.375000
vt 0.603966 0.375000
vt 0.603966 0.478966
vt 0.521034 0.478966
vt 0.521034 0.271034
vt 0.603966 0.271034
vt 0.500000 0.500000
vt 0.375000 0.375000
s 0
usemtl Material.004
f 65/1/1 64/1/1 1/1/1 11/1/1 12/1/1
f 4/2/2 3/3/2 7/4/2 8/5/2
f 3/3/1 4/2/1 15/2/1 14/3/1
f 63/6/3 62/7/3 65/8/3 4/2/3 8/9/3
f 7/4/1 3/3/1 14/3/1 13/4/1
f 48/10/1 1/11/1 57/11/1 56/10/1
f 31/11/4 21/11/4 41/11/4 44/11/4
f 11/11/3 16/12/3 35/12/3 33/11/3
f 12/8/5 11/11/5 33/11/5 34/8/5
f 4/2/1 65/8/1 12/8/1 15/2/1
f 63/6/1 8/9/1 10/9/1 9/6/1
f 5/1/1 66/1/1 63/1/1 9/1/1 16/1/1
f 8/5/1 7/4/1 13/4/1 10/5/1
f 1/11/1 48/10/1 5/12/1 16/12/1 11/11/1
f 18/13/5 19/14/5 20/12/5 17/15/5
f 10/5/2 13/4/2 19/4/2 18/5/2
f 9/6/3 10/9/3 18/9/3 17/6/3
f 14/3/2 23/3/2 32/3/2 25/3/2
f 22/8/4 21/11/4 23/3/4 24/2/4
f 28/16/1 27/11/1 43/11/1 37/16/1
f 15/2/3 12/8/3 22/8/3 24/2/3
f 14/3/2 15/2/2 24/2/2 23/3/2
f 27/11/1 28/16/1 26/17/1 25/3/1
f 26/17/1 28/16/1 30/16/1 29/17/1
f 27/11/1 25/3/1 32/3/1 31/11/1
f 20/12/5 19/14/5 29/14/5 30/12/5
f 17/15/5 20/12/5 38/12/5 40/15/5
f 23/3/4 21/11/4 31/11/4 32/3/4
f 19/4/2 13/4/2 26/4/2 29/4/2
f 13/4/2 14/3/2 25/3/2 26/4/2
f 33/11/6 35/12/6 37/12/6 43/11/6
f 35/12/6 36/15/6 40/15/6 38/12/6
f 34/8/6 33/11/6 41/11/6 42/8/6
f 35/12/6 38/12/6 39/12/6 37/12/6
f 41/11/6 33/11/6 43/11/6 44/11/6
f 22/8/3 12/8/3 34/8/3 42/8/3
f 27/11/1 31/11/1 44/11/1 43/11/1
f 30/16/1 28/16/1 37/16/1 39/16/1
f 9/6/3 17/6/3 40/6/3 36/6/3
f 20/12/5 30/12/5 39/12/5 38/12/5
f 21/11/4 22/8/4 42/8/4 41/11/4
f 16/12/4 9/15/4 36/15/4 35/12/4
f 45/18/6 49/19/6 46/20/6 2/21/6
f 6/22/6 47/23/6 49/19/6 45/18/6
f 67/24/1 66/25/1 60/25/1 61/24/1
f 55/26/6 50/27/6 51/28/6 52/29/6
f 54/30/6 53/31/6 50/27/6 55/26/6
f 5/12/1 48/10/1 56/10/1 59/12/1
f 1/1/1 64/1/1 58/1/1 57/1/1
f 64/32/1 67/24/1 61/24/1 58/32/1
f 66/1/1 5/1/1 59/1/1 60/1/1
f 51/28/7 50/27/7 56/10/7 57/11/7
f 52/29/8 51/28/8 57/11/8 58/32/8
f 53/31/9 54/30/9 60/25/9 59/12/9
f 50/27/7 53/31/7 59/12/7 56/10/7
f 55/26/10 52/29/10 58/32/10 61/24/10
f 54/30/10 55/26/10 61/24/10 60/25/10
f 6/22/11 45/18/11 62/33/11 63/15/11
f 2/21/12 46/20/12 64/32/12 65/8/12
f 47/23/13 6/22/13 63/15/13 66/25/13
f 45/18/11 2/21/11 65/8/11 62/33/11
f 46/20/14 49/19/14 67/24/14 64/32/14
f 49/19/14 47/23/14 66/25/14 67/24/14
