# Blender 3.6.5
# www.blender.org
mtllib holewall.mtl
o Cube.010
v 6.392595 0.245577 5.606389
v 5.889327 0.245577 5.606389
v 6.392595 0.245577 32.875240
v 5.889327 0.245577 32.875240
v 6.392594 12.794330 5.606389
v 5.889326 12.794330 5.606389
v 6.392594 12.794330 32.875240
v 5.889326 12.794330 32.875240
v 6.392594 1.878497 22.278387
v 6.392594 2.387041 21.292171
v 5.889327 1.878497 22.278387
v 5.889327 1.691843 22.182138
v 5.889327 2.387041 21.292171
v 6.392594 1.347782 22.004723
v 6.392595 0.245577 22.004723
v 6.392595 0.245577 20.407900
v 6.392594 2.191194 21.191183
v 6.392594 2.191194 20.407900
v 6.392594 2.191194 22.004723
v 6.392594 2.019612 22.004723
v 6.392594 2.191194 21.671976
v 5.889327 1.347782 22.004723
v 5.889327 0.245577 22.004723
v 5.889327 0.245577 20.407900
v 5.889327 2.191194 22.004723
v 5.889327 2.019612 22.004723
v 5.889327 2.191194 21.671976
v 5.889327 2.191194 21.191183
v 5.889327 2.191194 20.407900
v 6.392595 1.067713 22.004723
v 6.392595 1.039701 22.024899
v 6.392595 1.025167 22.004723
v 6.392594 1.350595 20.123722
v 6.392594 1.349170 20.121742
v 6.392595 0.951880 20.407900
v 6.392594 1.555280 20.407900
v 5.889327 1.350595 20.123722
v 5.889327 1.349170 20.121742
v 5.889327 0.951880 20.407900
v 5.889327 1.067713 22.004723
v 5.889327 1.039701 22.024899
v 5.889327 1.025167 22.004723
v 5.889327 1.555280 20.407900
vn 1.0000 -0.0000 -0.0000
vn -0.0000 -0.0000 1.0000
vn -0.0000 1.0000 -0.0000
vn -1.0000 -0.0000 -0.0000
vn -0.0000 -1.0000 -0.0000
vn -0.0000 -0.0000 -1.0000
vn -0.0000 -0.4583 0.8888
vn -0.0000 0.4583 -0.8888
vn -0.0000 -0.8888 -0.4583
vn -0.0000 0.5844 0.8114
vn -0.0000 -0.5845 -0.8114
vn -0.0000 0.8114 -0.5844
vn -0.0000 -0.8114 0.5844
vt 0.641379 0.650339
vt 0.646958 0.650339
vt 0.657531 0.652848
vt 0.625000 0.750000
vt 0.625000 0.650339
vt 0.640531 0.650339
vt 0.640821 0.650524
vt 0.639071 0.635700
vt 0.625000 0.635700
vt 0.625000 0.500000
vt 0.647014 0.633094
vt 0.646986 0.633076
vt 0.663761 0.650339
vt 0.663761 0.647289
vt 0.667663 0.643807
vt 0.663761 0.642881
vt 0.663761 0.635700
vt 0.651092 0.635700
vt 0.875000 0.500000
vt 0.875000 0.750000
vt 0.660343 0.650339
vt 0.375000 0.750000
vt 0.625000 1.000000
vt 0.375000 1.000000
vt 0.375000 0.000000
vt 0.625000 0.000000
vt 0.625000 0.250000
vt 0.375000 0.250000
vt 0.352985 0.633094
vt 0.375000 0.500000
vt 0.375000 0.635700
vt 0.360929 0.635700
vt 0.353014 0.633076
vt 0.375000 0.650339
vt 0.346187 0.651966
vt 0.353042 0.650339
vt 0.358621 0.650339
vt 0.359179 0.650524
vt 0.359469 0.650339
vt 0.336239 0.635700
vt 0.336239 0.642881
vt 0.332337 0.643807
vt 0.336239 0.647289
vt 0.336239 0.650339
vt 0.339657 0.650339
vt 0.342469 0.652848
vt 0.125000 0.750000
vt 0.125000 0.500000
vt 0.348908 0.635700
vt 0.625000 0.485308
vt 0.625000 0.297316
vt 0.575354 0.297316
vt 0.575354 0.485308
vt 0.577684 0.952684
vt 0.625000 0.952684
vt 0.625000 0.764692
vt 0.490467 0.764692
vt 0.490467 0.952684
vt 0.625000 0.680628
vt 0.625000 0.596278
vt 0.625000 0.596278
vt 0.545511 0.466009
vt 0.625000 0.466009
vt 0.625000 0.278017
vt 0.545511 0.278017
vt 0.470086 0.278017
vt 0.381798 0.278017
vt 0.381798 0.466009
vt 0.470086 0.466009
vt 0.603552 0.971983
vt 0.625000 0.971983
vt 0.625000 0.783991
vt 0.603552 0.783991
vt 0.519573 0.971983
vt 0.519574 0.783991
vt 0.484565 0.783991
vt 0.484565 0.971983
vt 0.381798 0.783991
vt 0.381798 0.971983
vt 0.479247 0.971983
vt 0.479247 0.783991
vt 0.625000 0.622632
vt 0.625000 0.697905
vt 0.625000 0.463946
vt 0.625000 0.275954
vt 0.535222 0.275954
vt 0.535222 0.463946
vt 0.381330 0.786054
vt 0.375000 0.786054
vt 0.375000 0.974046
vt 0.381330 0.974046
vt 0.125000 0.745440
vt 0.625000 0.564664
vt 0.625000 0.500447
s 0
usemtl Material.017
f 30/1/1 14/2/1 9/3/1 3/4/1 15/5/1 32/6/1 31/7/1
f 35/8/1 16/9/1 1/10/1 33/11/1 34/12/1
f 19/13/1 21/14/1 10/15/1 17/16/1 18/17/1 36/18/1 33/11/1 1/10/1 5/19/1 7/20/1 3/4/1 9/3/1 20/21/1
f 4/22/2 3/4/2 7/23/2 8/24/2
f 8/25/3 7/26/3 5/27/3 6/28/3
f 37/29/4 2/30/4 24/31/4 39/32/4 38/33/4
f 23/34/4 4/22/4 12/35/4 22/36/4 40/37/4 41/38/4 42/39/4
f 29/40/4 28/41/4 13/42/4 27/43/4 25/44/4 26/45/4 11/46/4 12/35/4 4/22/4 8/47/4 6/48/4 2/30/4 37/29/4 43/49/4
f 3/4/5 4/22/5 23/34/5 15/5/5
f 2/30/5 1/10/5 16/9/5 24/31/5
f 6/28/6 5/27/6 1/10/6 2/30/6
usemtl 
f 10/50/7 13/51/7 28/52/7 17/53/7
f 12/54/8 11/55/8 9/56/8 14/57/8 22/58/8
f 20/59/9 9/4/9 11/4/9 26/59/9
f 27/60/9 13/10/9 10/10/9 21/61/9
f 36/62/2 18/63/2 29/64/2 43/65/2
f 39/66/2 24/67/2 16/68/2 35/69/2
f 26/70/6 25/71/6 19/72/6 20/73/6
f 22/74/6 14/75/6 30/76/6 40/77/6
f 15/78/6 23/79/6 42/80/6 32/81/6
f 29/10/5 18/10/5 17/82/5 28/82/5
f 19/4/5 25/4/5 27/83/5 21/83/5
f 34/84/10 38/85/10 39/86/10 35/87/10
f 30/88/11 31/89/11 41/90/11 40/91/11
f 42/92/12 41/47/12 31/47/12 32/92/12
f 43/93/13 37/94/13 38/10/13 34/10/13 33/94/13 36/93/13
