# Blender 3.6.5
# www.blender.org
mtllib fuse.mtl
o Cylinder.055
v 0.000000 -0.521859 -0.077711
v 0.000000 0.111045 -0.077711
v 0.015161 -0.521859 -0.076218
v 0.015161 0.111045 -0.076218
v 0.029739 -0.521859 -0.071795
v 0.029739 0.111045 -0.071795
v 0.043174 -0.521859 -0.064614
v 0.043174 0.111045 -0.064614
v 0.054950 -0.521859 -0.054950
v 0.054950 0.111045 -0.054950
v 0.064614 -0.521859 -0.043174
v 0.064614 0.111045 -0.043174
v 0.071795 -0.521859 -0.029739
v 0.071795 0.111045 -0.029739
v 0.076218 -0.521859 -0.015161
v 0.076218 0.111045 -0.015161
v 0.077711 -0.521859 0.000000
v 0.077711 0.111045 0.000000
v 0.076218 -0.521859 0.015161
v 0.076218 0.111045 0.015161
v 0.071795 -0.521859 0.029739
v 0.071795 0.111045 0.029739
v 0.064614 -0.521859 0.043174
v 0.064614 0.111045 0.043174
v 0.054950 -0.521859 0.054950
v 0.054950 0.111045 0.054950
v 0.043174 -0.521859 0.064614
v 0.043174 0.111045 0.064614
v 0.029739 -0.521859 0.071795
v 0.029739 0.111045 0.071795
v 0.015161 -0.521859 0.076218
v 0.015161 0.111045 0.076218
v 0.000000 -0.521859 0.077711
v 0.000000 0.111045 0.077711
v -0.015161 -0.521859 0.076218
v -0.015161 0.111045 0.076218
v -0.029739 -0.521859 0.071795
v -0.029739 0.111045 0.071795
v -0.043174 -0.521859 0.064614
v -0.043174 0.111045 0.064614
v -0.054950 -0.521859 0.054950
v -0.054950 0.111045 0.054950
v -0.064614 -0.521859 0.043174
v -0.064614 0.111045 0.043174
v -0.071795 -0.521859 0.029739
v -0.071795 0.111045 0.029739
v -0.076218 -0.521859 0.015161
v -0.076218 0.111045 0.015161
v -0.077711 -0.521859 0.000000
v -0.077711 0.111045 0.000000
v -0.076218 -0.521859 -0.015161
v -0.076218 0.111045 -0.015161
v -0.071795 -0.521859 -0.029739
v -0.071795 0.111045 -0.029739
v -0.064614 -0.521859 -0.043174
v -0.064614 0.111045 -0.043174
v -0.054950 -0.521859 -0.054950
v -0.054950 0.111045 -0.054950
v -0.043174 -0.521859 -0.064614
v -0.043174 0.111045 -0.064614
v -0.029739 -0.521859 -0.071795
v -0.029739 0.111045 -0.071795
v -0.015161 -0.521859 -0.076218
v -0.015161 0.111045 -0.076218
v 0.000000 -0.521859 -0.077711
v 0.015161 -0.521859 -0.076218
v 0.029739 -0.521859 -0.071795
v 0.043174 -0.521859 -0.064614
v 0.054950 -0.521859 -0.054950
v 0.064614 -0.521859 -0.043174
v 0.071795 -0.521859 -0.029739
v 0.076218 -0.521859 -0.015161
v 0.077711 -0.521859 0.000000
v 0.076218 -0.521859 0.015161
v 0.071795 -0.521859 0.029739
v 0.064614 -0.521859 0.043174
v 0.054950 -0.521859 0.054950
v 0.043174 -0.521859 0.064614
v 0.029739 -0.521859 0.071795
v 0.015161 -0.521859 0.076218
v 0.000000 -0.521859 0.077711
v -0.015161 -0.521859 0.076218
v -0.029739 -0.521859 0.071795
v -0.043174 -0.521859 0.064614
v -0.054950 -0.521859 0.054950
v -0.064614 -0.521859 0.043174
v -0.071795 -0.521859 0.029739
v -0.076218 -0.521859 0.015161
v -0.077711 -0.521859 0.000000
v -0.076218 -0.521859 -0.015161
v -0.071795 -0.521859 -0.029739
v -0.064614 -0.521859 -0.043174
v -0.054950 -0.521859 -0.054950
v -0.043174 -0.521859 -0.064614
v -0.029739 -0.521859 -0.071795
v -0.015161 -0.521859 -0.076218
v -0.000000 -0.527900 -0.120087
v 0.023428 -0.527900 -0.117780
v 0.045955 -0.527900 -0.110946
v 0.066717 -0.527900 -0.099849
v 0.084914 -0.527900 -0.084914
v 0.099849 -0.527900 -0.066717
v 0.110946 -0.527900 -0.045955
v 0.117780 -0.527900 -0.023428
v 0.120087 -0.527900 0.000000
v 0.117780 -0.527900 0.023428
v 0.110946 -0.527900 0.045955
v 0.099849 -0.527900 0.066717
v 0.084914 -0.527900 0.084914
v 0.066717 -0.527900 0.099849
v 0.045955 -0.527900 0.110946
v 0.023428 -0.527900 0.117780
v -0.000000 -0.527900 0.120087
v -0.023428 -0.527900 0.117780
v -0.045955 -0.527900 0.110946
v -0.066717 -0.527900 0.099849
v -0.084914 -0.527900 0.084914
v -0.099849 -0.527900 0.066717
v -0.110946 -0.527900 0.045955
v -0.117780 -0.527900 0.023428
v -0.120087 -0.527900 0.000000
v -0.117780 -0.527900 -0.023428
v -0.110946 -0.527900 -0.045955
v -0.099849 -0.527900 -0.066717
v -0.084914 -0.527900 -0.084914
v -0.066717 -0.527900 -0.099849
v -0.045955 -0.527900 -0.110946
v -0.023428 -0.527900 -0.117780
v 0.000000 -0.603559 -0.120087
v 0.023428 -0.603559 -0.117780
v 0.045955 -0.603559 -0.110946
v 0.066717 -0.603559 -0.099849
v 0.084914 -0.603559 -0.084914
v 0.099849 -0.603559 -0.066717
v 0.110946 -0.603559 -0.045955
v 0.117780 -0.603559 -0.023428
v 0.120087 -0.603559 0.000000
v 0.117780 -0.603559 0.023428
v 0.110946 -0.603559 0.045955
v 0.099849 -0.603559 0.066717
v 0.084914 -0.603559 0.084914
v 0.066717 -0.603559 0.099849
v 0.045955 -0.603559 0.110946
v 0.023428 -0.603559 0.117780
v 0.000000 -0.603559 0.120087
v -0.023428 -0.603559 0.117780
v -0.045955 -0.603559 0.110946
v -0.066717 -0.603559 0.099849
v -0.084914 -0.603559 0.084914
v -0.099849 -0.603559 0.066717
v -0.110946 -0.603559 0.045955
v -0.117780 -0.603559 0.023428
v -0.120087 -0.603559 0.000000
v -0.117780 -0.603559 -0.023428
v -0.110946 -0.603559 -0.045955
v -0.099849 -0.603559 -0.066717
v -0.084914 -0.603559 -0.084914
v -0.066717 -0.603559 -0.099849
v -0.045955 -0.603559 -0.110946
v -0.023428 -0.603559 -0.117780
v 0.015161 0.337641 -0.076218
v 0.000000 0.337641 -0.077711
v 0.029739 0.337641 -0.071795
v 0.043174 0.337641 -0.064614
v 0.054950 0.337641 -0.054950
v 0.064614 0.337641 -0.043174
v 0.071795 0.337641 -0.029739
v 0.076218 0.337641 -0.015161
v 0.077711 0.337641 0.000000
v 0.076218 0.337641 0.015161
v 0.071795 0.337641 0.029739
v 0.064614 0.337641 0.043174
v 0.054950 0.337641 0.054950
v 0.043174 0.337641 0.064614
v 0.029739 0.337641 0.071795
v 0.015161 0.337641 0.076218
v 0.000000 0.337641 0.077711
v -0.015161 0.337641 0.076218
v -0.029739 0.337641 0.071795
v -0.043174 0.337641 0.064614
v -0.054950 0.337641 0.054950
v -0.064614 0.337641 0.043174
v -0.071795 0.337641 0.029739
v -0.076218 0.337641 0.015161
v -0.077711 0.337641 0.000000
v -0.076218 0.337641 -0.015161
v -0.071795 0.337641 -0.029739
v -0.064614 0.337641 -0.043174
v -0.054950 0.337641 -0.054950
v -0.043174 0.337641 -0.064614
v -0.029739 0.337641 -0.071795
v -0.015161 0.337641 -0.076218
v 0.024932 0.348564 -0.125348
v 0.000000 0.348564 -0.127804
v 0.048906 0.348564 -0.118076
v 0.071001 0.348564 -0.106266
v 0.090367 0.348564 -0.090373
v 0.106260 0.348564 -0.071007
v 0.118070 0.348564 -0.048912
v 0.125342 0.348564 -0.024938
v 0.127798 0.348564 -0.000006
v 0.125342 0.348564 0.024926
v 0.118070 0.348564 0.048900
v 0.106260 0.348564 0.070994
v 0.090367 0.348564 0.090360
v 0.071001 0.348564 0.106254
v 0.048906 0.348564 0.118064
v 0.024932 0.348564 0.125336
v 0.000000 0.348564 0.127792
v -0.024932 0.348564 0.125336
v -0.048906 0.348564 0.118064
v -0.071001 0.348564 0.106254
v -0.090367 0.348564 0.090360
v -0.106260 0.348564 0.070994
v -0.118070 0.348564 0.048900
v -0.125342 0.348564 0.024926
v -0.127798 0.348564 -0.000006
v -0.125342 0.348564 -0.024938
v -0.118070 0.348564 -0.048912
v -0.106260 0.348564 -0.071007
v -0.090367 0.348564 -0.090373
v -0.071001 0.348564 -0.106266
v -0.048906 0.348564 -0.118076
v -0.024932 0.348564 -0.125348
v 0.024932 0.420617 -0.125348
v 0.000000 0.420617 -0.127804
v 0.048906 0.420617 -0.118076
v 0.071001 0.420617 -0.106266
v 0.090367 0.420617 -0.090373
v 0.106260 0.420617 -0.071007
v 0.118070 0.420617 -0.048912
v 0.125342 0.420617 -0.024938
v 0.127798 0.420617 -0.000006
v 0.125342 0.420617 0.024926
v 0.118070 0.420617 0.048900
v 0.106260 0.420617 0.070994
v 0.090367 0.420617 0.090360
v 0.071001 0.420617 0.106254
v 0.048906 0.420617 0.118064
v 0.024932 0.420617 0.125336
v 0.000000 0.420617 0.127792
v -0.024932 0.420617 0.125336
v -0.048906 0.420617 0.118064
v -0.071001 0.420617 0.106254
v -0.090367 0.420617 0.090360
v -0.106260 0.420617 0.070994
v -0.118070 0.420617 0.048900
v -0.125342 0.420617 0.024926
v -0.127798 0.420617 -0.000006
v -0.125342 0.420617 -0.024938
v -0.118070 0.420617 -0.048912
v -0.106260 0.420617 -0.071007
v -0.090367 0.420617 -0.090373
v -0.071001 0.420617 -0.106266
v -0.048906 0.420617 -0.118076
v -0.024932 0.420617 -0.125348
vn -0.0000 -0.0000 -1.0000
vn 0.1951 -0.0000 -0.9808
vn 0.3827 -0.0000 -0.9239
vn 0.5556 -0.0000 -0.8315
vn 0.7071 -0.0000 -0.7071
vn 0.8315 -0.0000 -0.5556
vn 0.9239 -0.0000 -0.3827
vn 0.9808 -0.0000 -0.1951
vn 1.0000 -0.0000 -0.0000
vn 0.9808 -0.0000 0.1951
vn 0.9239 -0.0000 0.3827
vn 0.8315 -0.0000 0.5556
vn 0.7071 -0.0000 0.7071
vn 0.5556 -0.0000 0.8315
vn 0.3827 -0.0000 0.9239
vn 0.1951 -0.0000 0.9808
vn -0.0000 -0.0000 1.0000
vn -0.1951 -0.0000 0.9808
vn -0.3827 -0.0000 0.9239
vn -0.5556 -0.0000 0.8315
vn -0.7071 -0.0000 0.7071
vn -0.8315 -0.0000 0.5556
vn -0.9239 -0.0000 0.3827
vn -0.9808 -0.0000 0.1951
vn -1.0000 -0.0000 -0.0000
vn -0.9808 -0.0000 -0.1951
vn -0.9239 -0.0000 -0.3827
vn -0.8315 -0.0000 -0.5556
vn -0.7071 -0.0000 -0.7071
vn -0.5556 -0.0000 -0.8315
vn -0.3827 -0.0000 -0.9239
vn -0.1951 -0.0000 -0.9808
vn -0.0000 -1.0000 -0.0000
vn -0.0998 0.9900 0.0998
vn -0.1173 0.9900 0.0784
vn -0.0784 0.9900 -0.1173
vn -0.0540 0.9900 -0.1304
vn 0.1384 0.9900 -0.0275
vn 0.1411 0.9900 -0.0000
vn -0.0000 0.9900 0.1411
vn -0.0275 0.9900 0.1384
vn -0.1384 0.9900 -0.0275
vn -0.1304 0.9900 -0.0540
vn 0.0784 0.9900 -0.1173
vn 0.0998 0.9900 -0.0998
vn 0.0998 0.9900 0.0998
vn 0.0784 0.9900 0.1173
vn -0.1304 0.9900 0.0540
vn -0.0275 0.9900 -0.1384
vn 0.1384 0.9900 0.0275
vn -0.0540 0.9900 0.1304
vn -0.1173 0.9900 -0.0784
vn 0.1173 0.9900 -0.0784
vn 0.0540 0.9900 0.1304
vn -0.1384 0.9900 0.0275
vn -0.0000 0.9900 -0.1411
vn 0.0275 0.9900 -0.1384
vn 0.1304 0.9900 0.0540
vn -0.0784 0.9900 0.1173
vn -0.0998 0.9900 -0.0998
vn 0.1304 0.9900 -0.0540
vn 0.0275 0.9900 0.1384
vn -0.1411 0.9900 -0.0000
vn 0.0540 0.9900 -0.1304
vn 0.1173 0.9900 0.0784
vn 0.1506 -0.9770 -0.1506
vn 0.1771 -0.9770 -0.1184
vn -0.0416 -0.9770 -0.2089
vn -0.0000 -0.9770 -0.2130
vn -0.0815 -0.9770 0.1969
vn -0.1184 -0.9770 0.1772
vn 0.1968 -0.9770 -0.0815
vn -0.1507 -0.9770 0.1507
vn 0.2090 -0.9770 -0.0416
vn -0.1772 -0.9770 0.1184
vn 0.2131 -0.9770 -0.0000
vn -0.1969 -0.9770 0.0815
vn 0.2090 -0.9770 0.0416
vn -0.2090 -0.9770 0.0416
vn 0.1969 -0.9770 0.0815
vn -0.2131 -0.9770 -0.0000
vn 0.1772 -0.9770 0.1184
vn -0.2090 -0.9770 -0.0416
vn 0.1507 -0.9770 0.1507
vn -0.1968 -0.9770 -0.0815
vn 0.1184 -0.9770 0.1772
vn -0.1771 -0.9770 -0.1184
vn 0.0815 -0.9770 0.1969
vn 0.0416 -0.9770 -0.2089
vn -0.1506 -0.9770 -0.1506
vn 0.0416 -0.9770 0.2090
vn 0.0815 -0.9770 -0.1968
vn -0.1184 -0.9770 -0.1771
vn -0.0000 -0.9770 0.2131
vn 0.1184 -0.9770 -0.1771
vn -0.0815 -0.9770 -0.1968
vn -0.0416 -0.9770 0.2090
vn -0.0000 1.0000 -0.0000
vt 1.000000 0.500000
vt 1.000000 1.000000
vt 0.968750 1.000000
vt 0.968750 0.500000
vt 0.937500 1.000000
vt 0.937500 0.500000
vt 0.906250 1.000000
vt 0.906250 0.500000
vt 0.875000 1.000000
vt 0.875000 0.500000
vt 0.843750 1.000000
vt 0.843750 0.500000
vt 0.812500 1.000000
vt 0.812500 0.500000
vt 0.781250 1.000000
vt 0.781250 0.500000
vt 0.750000 1.000000
vt 0.750000 0.500000
vt 0.718750 1.000000
vt 0.718750 0.500000
vt 0.687500 1.000000
vt 0.687500 0.500000
vt 0.656250 1.000000
vt 0.656250 0.500000
vt 0.625000 1.000000
vt 0.625000 0.500000
vt 0.593750 1.000000
vt 0.593750 0.500000
vt 0.562500 1.000000
vt 0.562500 0.500000
vt 0.531250 1.000000
vt 0.531250 0.500000
vt 0.500000 1.000000
vt 0.500000 0.500000
vt 0.468750 1.000000
vt 0.468750 0.500000
vt 0.437500 1.000000
vt 0.437500 0.500000
vt 0.406250 1.000000
vt 0.406250 0.500000
vt 0.375000 1.000000
vt 0.375000 0.500000
vt 0.343750 1.000000
vt 0.343750 0.500000
vt 0.312500 1.000000
vt 0.312500 0.500000
vt 0.281250 1.000000
vt 0.281250 0.500000
vt 0.250000 1.000000
vt 0.250000 0.500000
vt 0.218750 1.000000
vt 0.218750 0.500000
vt 0.187500 1.000000
vt 0.187500 0.500000
vt 0.156250 1.000000
vt 0.156250 0.500000
vt 0.125000 1.000000
vt 0.125000 0.500000
vt 0.093750 1.000000
vt 0.093750 0.500000
vt 0.062500 1.000000
vt 0.062500 0.500000
vt 0.031250 1.000000
vt 0.031250 0.500000
vt 0.000000 1.000000
vt 0.000000 0.500000
vt 0.750000 0.490000
vt 0.796822 0.485388
vt 0.841844 0.471731
vt 0.883337 0.449553
vt 0.919706 0.419706
vt 0.949553 0.383337
vt 0.971731 0.341844
vt 0.985388 0.296822
vt 0.990000 0.250000
vt 0.985388 0.203178
vt 0.971731 0.158156
vt 0.949553 0.116663
vt 0.919706 0.080294
vt 0.883337 0.050447
vt 0.841844 0.028269
vt 0.796822 0.014612
vt 0.750000 0.010000
vt 0.703178 0.014612
vt 0.658156 0.028269
vt 0.616663 0.050447
vt 0.580294 0.080294
vt 0.550447 0.116663
vt 0.528269 0.158156
vt 0.514612 0.203178
vt 0.510000 0.250000
vt 0.514612 0.296822
vt 0.528269 0.341844
vt 0.550447 0.383337
vt 0.580294 0.419706
vt 0.616663 0.449553
vt 0.658156 0.471731
vt 0.703178 0.485388
vt 0.296822 0.485388
vt 0.250000 0.490000
vt 0.203178 0.485388
vt 0.158156 0.471731
vt 0.116663 0.449553
vt 0.080294 0.419706
vt 0.050447 0.383337
vt 0.028269 0.341844
vt 0.014612 0.296822
vt 0.010000 0.250000
vt 0.014612 0.203178
vt 0.028269 0.158156
vt 0.050447 0.116663
vt 0.080294 0.080294
vt 0.116663 0.050447
vt 0.158156 0.028269
vt 0.203178 0.014612
vt 0.250000 0.010000
vt 0.296822 0.014612
vt 0.341844 0.028269
vt 0.383337 0.050447
vt 0.419706 0.080294
vt 0.449553 0.116663
vt 0.471731 0.158156
vt 0.485388 0.203178
vt 0.490000 0.250000
vt 0.485388 0.296822
vt 0.471731 0.341844
vt 0.449553 0.383337
vt 0.419706 0.419706
vt 0.383337 0.449553
vt 0.341844 0.471731
s 1
f 1/1/1 2/2/1 4/3/2 3/4/2
f 3/4/2 4/3/2 6/5/3 5/6/3
f 5/6/3 6/5/3 8/7/4 7/8/4
f 7/8/4 8/7/4 10/9/5 9/10/5
f 9/10/5 10/9/5 12/11/6 11/12/6
f 11/12/6 12/11/6 14/13/7 13/14/7
f 13/14/7 14/13/7 16/15/8 15/16/8
f 15/16/8 16/15/8 18/17/9 17/18/9
f 17/18/9 18/17/9 20/19/10 19/20/10
f 19/20/10 20/19/10 22/21/11 21/22/11
f 21/22/11 22/21/11 24/23/12 23/24/12
f 23/24/12 24/23/12 26/25/13 25/26/13
f 25/26/13 26/25/13 28/27/14 27/28/14
f 27/28/14 28/27/14 30/29/15 29/30/15
f 29/30/15 30/29/15 32/31/16 31/32/16
f 31/32/16 32/31/16 34/33/17 33/34/17
f 33/34/17 34/33/17 36/35/18 35/36/18
f 35/36/18 36/35/18 38/37/19 37/38/19
f 37/38/19 38/37/19 40/39/20 39/40/20
f 39/40/20 40/39/20 42/41/21 41/42/21
f 41/42/21 42/41/21 44/43/22 43/44/22
f 43/44/22 44/43/22 46/45/23 45/46/23
f 45/46/23 46/45/23 48/47/24 47/48/24
f 47/48/24 48/47/24 50/49/25 49/50/25
f 49/50/25 50/49/25 52/51/26 51/52/26
f 51/52/26 52/51/26 54/53/27 53/54/27
f 53/54/27 54/53/27 56/55/28 55/56/28
f 55/56/28 56/55/28 58/57/29 57/58/29
f 57/58/29 58/57/29 60/59/30 59/60/30
f 59/60/30 60/59/30 62/61/31 61/62/31
f 10/9/5 165/9/5 166/11/6 12/11/6
f 61/62/31 62/61/31 64/63/32 63/64/32
f 63/64/32 64/63/32 2/65/1 1/66/1
f 1/67/33 3/68/33 5/69/33 7/70/33 9/71/33 11/72/33 13/73/33 15/74/33 17/75/33 19/76/33 21/77/33 23/78/33 25/79/33 27/80/33 29/81/33 31/82/33 33/83/33 35/84/33 37/85/33 39/86/33 41/87/33 43/88/33 45/89/33 47/90/33 49/91/33 51/92/33 53/93/33 55/94/33 57/95/33 59/96/33 61/97/33 63/98/33
f 85/42/34 86/44/35 118/44/35 117/42/34
f 116/40/20 117/42/21 149/42/21 148/40/20
f 94/60/36 95/62/37 127/62/37 126/60/36
f 72/16/38 73/18/39 105/18/39 104/16/38
f 81/34/40 82/36/41 114/36/41 113/34/40
f 90/52/42 91/54/43 123/54/43 122/52/42
f 68/8/44 69/10/45 101/10/45 100/8/44
f 77/26/46 78/28/47 110/28/47 109/26/46
f 86/44/35 87/46/48 119/46/48 118/44/35
f 95/62/37 96/64/49 128/64/49 127/62/37
f 73/18/39 74/20/50 106/20/50 105/18/39
f 82/36/41 83/38/51 115/38/51 114/36/41
f 91/54/43 92/56/52 124/56/52 123/54/43
f 69/10/45 70/12/53 102/12/53 101/10/45
f 78/28/47 79/30/54 111/30/54 110/28/47
f 87/46/48 88/48/55 120/48/55 119/46/48
f 65/1/56 66/4/57 98/4/57 97/1/56
f 96/64/49 65/66/56 97/66/56 128/64/49
f 74/20/50 75/22/58 107/22/58 106/20/50
f 83/38/51 84/40/59 116/40/59 115/38/51
f 92/56/52 93/58/60 125/58/60 124/56/52
f 70/12/53 71/14/61 103/14/61 102/12/53
f 79/30/54 80/32/62 112/32/62 111/30/54
f 88/48/55 89/50/63 121/50/63 120/48/55
f 66/4/57 67/6/64 99/6/64 98/4/57
f 75/22/58 76/24/65 108/24/65 107/22/58
f 84/40/59 85/42/34 117/42/34 116/40/59
f 93/58/60 94/60/36 126/60/36 125/58/60
f 71/14/61 72/16/38 104/16/38 103/14/61
f 80/32/62 81/34/40 113/34/40 112/32/62
f 89/50/63 90/52/42 122/52/42 121/50/63
f 67/6/64 68/8/44 100/8/44 99/6/64
f 76/24/65 77/26/46 109/26/46 108/24/65
f 129/67/33 130/68/33 131/69/33 132/70/33 133/71/33 134/72/33 135/73/33 136/74/33 137/75/33 138/76/33 139/77/33 140/78/33 141/79/33 142/80/33 143/81/33 144/82/33 145/83/33 146/84/33 147/85/33 148/86/33 149/87/33 150/88/33 151/89/33 152/90/33 153/91/33 154/92/33 155/93/33 156/94/33 157/95/33 158/96/33 159/97/33 160/98/33
f 103/14/7 104/16/8 136/16/8 135/14/7
f 117/42/21 118/44/22 150/44/22 149/42/21
f 104/16/8 105/18/9 137/18/9 136/16/8
f 118/44/22 119/46/23 151/46/23 150/44/22
f 105/18/9 106/20/10 138/20/10 137/18/9
f 119/46/23 120/48/24 152/48/24 151/46/23
f 106/20/10 107/22/11 139/22/11 138/20/10
f 120/48/24 121/50/25 153/50/25 152/48/24
f 107/22/11 108/24/12 140/24/12 139/22/11
f 121/50/25 122/52/26 154/52/26 153/50/25
f 108/24/12 109/26/13 141/26/13 140/24/12
f 122/52/26 123/54/27 155/54/27 154/52/26
f 109/26/13 110/28/14 142/28/14 141/26/13
f 123/54/27 124/56/28 156/56/28 155/54/27
f 110/28/14 111/30/15 143/30/15 142/28/14
f 97/1/1 98/4/2 130/4/2 129/1/1
f 124/56/28 125/58/29 157/58/29 156/56/28
f 111/30/15 112/32/16 144/32/16 143/30/15
f 98/4/2 99/6/3 131/6/3 130/4/2
f 125/58/29 126/60/30 158/60/30 157/58/29
f 112/32/16 113/34/17 145/34/17 144/32/16
f 99/6/3 100/8/4 132/8/4 131/6/3
f 126/60/30 127/62/31 159/62/31 158/60/30
f 113/34/17 114/36/18 146/36/18 145/34/17
f 100/8/4 101/10/5 133/10/5 132/8/4
f 127/62/31 128/64/32 160/64/32 159/62/31
f 114/36/18 115/38/19 147/38/19 146/36/18
f 101/10/5 102/12/6 134/12/6 133/10/5
f 128/64/32 97/66/1 129/66/1 160/64/32
f 115/38/19 116/40/20 148/40/20 147/38/19
f 102/12/6 103/14/7 135/14/7 134/12/6
f 165/9/66 197/9/66 198/11/67 166/11/67
f 28/27/14 174/27/14 175/29/15 30/29/15
f 46/45/23 183/45/23 184/47/24 48/47/24
f 2/2/1 162/2/1 161/3/2 4/3/2
f 64/63/32 192/63/32 162/65/1 2/65/1
f 20/19/10 170/19/10 171/21/11 22/21/11
f 38/37/19 179/37/19 180/39/20 40/39/20
f 56/55/28 188/55/28 189/57/29 58/57/29
f 12/11/6 166/11/6 167/13/7 14/13/7
f 30/29/15 175/29/15 176/31/16 32/31/16
f 48/47/24 184/47/24 185/49/25 50/49/25
f 4/3/2 161/3/2 163/5/3 6/5/3
f 22/21/11 171/21/11 172/23/12 24/23/12
f 40/39/20 180/39/20 181/41/21 42/41/21
f 58/57/29 189/57/29 190/59/30 60/59/30
f 14/13/7 167/13/7 168/15/8 16/15/8
f 32/31/16 176/31/16 177/33/17 34/33/17
f 50/49/25 185/49/25 186/51/26 52/51/26
f 6/5/3 163/5/3 164/7/4 8/7/4
f 24/23/12 172/23/12 173/25/13 26/25/13
f 42/41/21 181/41/21 182/43/22 44/43/22
f 60/59/30 190/59/30 191/61/31 62/61/31
f 16/15/8 168/15/8 169/17/9 18/17/9
f 34/33/17 177/33/17 178/35/18 36/35/18
f 52/51/26 186/51/26 187/53/27 54/53/27
f 8/7/4 164/7/4 165/9/5 10/9/5
f 26/25/13 173/25/13 174/27/14 28/27/14
f 44/43/22 182/43/22 183/45/23 46/45/23
f 62/61/31 191/61/31 192/63/32 64/63/32
f 18/17/9 169/17/9 170/19/10 20/19/10
f 36/35/18 178/35/18 179/37/19 38/37/19
f 54/53/27 187/53/27 188/55/28 56/55/28
f 198/11/6 230/11/6 231/13/7 199/13/7
f 192/63/68 224/63/68 194/65/69 162/65/69
f 179/37/70 211/37/70 212/39/71 180/39/71
f 166/11/67 198/11/67 199/13/72 167/13/72
f 180/39/71 212/39/71 213/41/73 181/41/73
f 167/13/72 199/13/72 200/15/74 168/15/74
f 181/41/73 213/41/73 214/43/75 182/43/75
f 168/15/74 200/15/74 201/17/76 169/17/76
f 182/43/75 214/43/75 215/45/77 183/45/77
f 169/17/76 201/17/76 202/19/78 170/19/78
f 183/45/77 215/45/77 216/47/79 184/47/79
f 170/19/78 202/19/78 203/21/80 171/21/80
f 184/47/79 216/47/79 217/49/81 185/49/81
f 171/21/80 203/21/80 204/23/82 172/23/82
f 185/49/81 217/49/81 218/51/83 186/51/83
f 172/23/82 204/23/82 205/25/84 173/25/84
f 186/51/83 218/51/83 219/53/85 187/53/85
f 173/25/84 205/25/84 206/27/86 174/27/86
f 187/53/85 219/53/85 220/55/87 188/55/87
f 174/27/86 206/27/86 207/29/88 175/29/88
f 162/2/69 194/2/69 193/3/89 161/3/89
f 188/55/87 220/55/87 221/57/90 189/57/90
f 175/29/88 207/29/88 208/31/91 176/31/91
f 161/3/89 193/3/89 195/5/92 163/5/92
f 189/57/90 221/57/90 222/59/93 190/59/93
f 176/31/91 208/31/91 209/33/94 177/33/94
f 163/5/92 195/5/92 196/7/95 164/7/95
f 190/59/93 222/59/93 223/61/96 191/61/96
f 177/33/94 209/33/94 210/35/97 178/35/97
f 164/7/95 196/7/95 197/9/66 165/9/66
f 191/61/96 223/61/96 224/63/68 192/63/68
f 178/35/97 210/35/97 211/37/70 179/37/70
f 225/99/98 226/100/98 256/101/98 255/102/98 254/103/98 253/104/98 252/105/98 251/106/98 250/107/98 249/108/98 248/109/98 247/110/98 246/111/98 245/112/98 244/113/98 243/114/98 242/115/98 241/116/98 240/117/98 239/118/98 238/119/98 237/120/98 236/121/98 235/122/98 234/123/98 233/124/98 232/125/98 231/126/98 230/127/98 229/128/98 228/129/98 227/130/98
f 212/39/20 244/39/20 245/41/21 213/41/21
f 199/13/7 231/13/7 232/15/8 200/15/8
f 213/41/21 245/41/21 246/43/22 214/43/22
f 200/15/8 232/15/8 233/17/9 201/17/9
f 214/43/22 246/43/22 247/45/23 215/45/23
f 201/17/9 233/17/9 234/19/10 202/19/10
f 215/45/23 247/45/23 248/47/24 216/47/24
f 202/19/10 234/19/10 235/21/11 203/21/11
f 216/47/24 248/47/24 249/49/25 217/49/25
f 203/21/11 235/21/11 236/23/12 204/23/12
f 217/49/25 249/49/25 250/51/26 218/51/26
f 204/23/12 236/23/12 237/25/13 205/25/13
f 218/51/26 250/51/26 251/53/27 219/53/27
f 205/25/13 237/25/13 238/27/14 206/27/14
f 219/53/27 251/53/27 252/55/28 220/55/28
f 206/27/14 238/27/14 239/29/15 207/29/15
f 194/2/1 226/2/1 225/3/2 193/3/2
f 220/55/28 252/55/28 253/57/29 221/57/29
f 207/29/15 239/29/15 240/31/16 208/31/16
f 193/3/2 225/3/2 227/5/3 195/5/3
f 221/57/29 253/57/29 254/59/30 222/59/30
f 208/31/16 240/31/16 241/33/17 209/33/17
f 195/5/3 227/5/3 228/7/4 196/7/4
f 222/59/30 254/59/30 255/61/31 223/61/31
f 209/33/17 241/33/17 242/35/18 210/35/18
f 196/7/4 228/7/4 229/9/5 197/9/5
f 223/61/31 255/61/31 256/63/32 224/63/32
f 210/35/18 242/35/18 243/37/19 211/37/19
f 197/9/5 229/9/5 230/11/6 198/11/6
f 224/63/32 256/63/32 226/65/1 194/65/1
f 211/37/19 243/37/19 244/39/20 212/39/20
